<svg class="img-fluid" id="outputsvg" xmlns="http://www.w3.org/2000/svg" style="transform: matrix(1.01591, 0, 0, 1.01591, 0, 0); transform-origin: 50% 50%; cursor: move;" width="500" height="500" viewBox="0 0 5000 5000"><g id="l1XAD4eiKnl21Od5QhXUccl" fill="rgb(61,181,172)" style="transform: none;"><g style="transform: none;"><path id="phRmgJr0b" d="M1536 4989 c-501 -42 -963 -313 -1245 -728 -157 -231 -257 -521 -281 -815 -13 -170 -13 -1722 0 -1892 24 -299 116 -566 278 -808 287 -427 745 -694 1266 -736 170 -13 1722 -13 1892 0 797 64 1420 651 1536 1445 19 130 19 1960 0 2090 -107 740 -653 1300 -1397 1432 -77 13 -221 16 -1020 18 -511 2 -975 -1 -1029 -6z m1139 -669 c812 -93 1458 -688 1620 -1493 139 -691 -179 -1433 -790 -1842 -205 -138 -426 -228 -686 -281 -117 -24 -157 -28 -319 -28 -153 0 -205 4 -299 22 -515 103 -936 379 -1216 797 -137 204 -227 422 -282 682 -24 114 -27 149 -27 323 0 173 3 209 27 321 73 346 219 640 440 889 384 433 986 672 1532 610z"></path><path id="pPfsaIgfU" d="M2220 4206 c-527 -76 -1017 -429 -1254 -903 -132 -264 -186 -497 -186 -803 0 -313 51 -533 183 -795 232 -463 668 -792 1189 -897 99 -20 143 -23 348 -23 205 0 249 3 348 23 648 131 1162 614 1322 1242 67 264 67 637 -1 902 -46 183 -150 403 -267 567 -124 174 -389 417 -470 430 -20 4 -39 14 -46 26 -16 29 -27 35 -63 35 -26 0 -33 -4 -33 -19 0 -10 -9 -29 -19 -42 -19 -23 -20 -23 -38 -6 -17 18 -17 19 5 37 14 11 22 29 22 48 0 24 -7 32 -39 46 -25 12 -56 17 -87 14 -45 -3 -50 -1 -62 25 -10 22 -20 27 -48 27 -22 0 -34 -5 -34 -13 0 -8 -9 -22 -21 -33 -20 -18 -21 -18 -35 1 -8 10 -14 34 -14 52 0 32 -1 33 -45 33 l-45 0 0 -38 c0 -41 -15 -63 -36 -55 -11 4 -12 18 -8 58 6 45 4 53 -12 60 -35 15 -452 15 -554 1z m600 -231 c10 -12 10 -18 0 -29 -14 -18 -40 -10 -40 13 0 32 20 40 40 16z m150 0 c10 -12 10 -18 0 -29 -14 -18 -40 -10 -40 13 0 32 20 40 40 16z m150 -1 c11 -12 11 -18 -1 -30 -13 -12 -18 -12 -34 0 -16 12 -17 16 -6 30 17 20 25 20 41 0z m-300 -149 c10 -12 10 -18 0 -31 -12 -13 -15 -13 -28 0 -15 15 -10 46 6 46 5 0 15 -7 22 -15z m150 0 c10 -12 10 -18 0 -30 -12 -14 -15 -14 -31 1 -14 13 -16 20 -8 31 15 17 24 17 39 -2z m150 -1 c11 -12 11 -18 -2 -30 -14 -14 -17 -14 -32 1 -13 13 -14 20 -5 31 15 18 24 18 39 -2z m150 0 c11 -12 11 -18 -1 -30 -13 -12 -18 -12 -34 0 -16 12 -17 16 -6 30 17 20 25 20 41 0z m-450 -149 c10 -12 10 -18 0 -30 -12 -14 -15 -14 -31 1 -14 13 -16 20 -8 31 15 17 24 17 39 -2z m150 0 c10 -12 10 -18 0 -30 -12 -14 -15 -14 -31 1 -14 13 -16 20 -8 31 15 17 24 17 39 -2z m150 -1 c11 -12 11 -18 -2 -30 -14 -14 -17 -14 -32 1 -13 13 -14 20 -5 31 15 18 24 18 39 -2z m150 0 c11 -12 11 -18 -1 -30 -13 -12 -18 -12 -34 0 -16 12 -17 16 -6 30 17 20 25 20 41 0z m-450 -149 c10 -12 10 -18 0 -30 -12 -14 -15 -14 -31 1 -14 13 -16 20 -8 31 15 17 24 17 39 -2z m150 0 c10 -12 10 -18 0 -30 -12 -14 -15 -14 -31 1 -14 13 -16 20 -8 31 15 17 24 17 39 -2z m150 0 c10 -12 10 -18 0 -30 -12 -14 -15 -14 -31 1 -14 13 -16 20 -8 31 15 17 24 17 39 -2z m150 0 c13 -16 6 -35 -14 -35 -22 0 -37 25 -24 38 16 16 23 15 38 -3z m-444 -150 c4 -8 1 -22 -6 -30 -11 -14 -15 -14 -31 1 -14 13 -16 20 -8 31 15 17 38 17 45 -2z m144 0 c13 -16 6 -35 -14 -35 -22 0 -37 25 -24 38 16 16 23 15 38 -3z m150 0 c13 -16 6 -35 -14 -35 -22 0 -37 25 -24 38 16 16 23 15 38 -3z m150 0 c13 -16 6 -35 -14 -35 -22 0 -37 25 -24 38 16 16 23 15 38 -3z m-2120 -281 l0 -57 53 7 c28 3 84 6 124 6 l72 0 28 50 c26 47 54 71 37 33 -4 -10 -9 -34 -12 -54 -3 -29 1 -41 22 -62 23 -23 26 -35 26 -90 0 -49 -5 -71 -19 -88 -18 -23 -27 -24 -151 -28 -72 -1 -151 0 -176 4 l-44 6 0 165 c0 157 1 164 20 164 18 0 20 -7 20 -56z m872 28 c21 -20 23 -34 26 -136 4 -108 3 -114 -21 -142 -25 -29 -26 -29 -157 -33 -130 -3 -200 3 -200 17 0 5 67 6 148 4 185 -5 194 -2 190 71 l-3 52 -152 0 c-142 0 -154 1 -174 21 -16 17 -21 34 -21 73 0 91 21 101 204 98 128 -2 139 -4 160 -25z m537 13 c16 -8 31 -22 35 -30 3 -9 6 -68 6 -130 0 -158 -1 -159 -155 -163 -64 -3 -145 -1 -181 3 l-64 7 0 158 0 159 38 4 c20 2 95 4 165 5 95 2 135 -2 156 -13z m241 -155 c0 -163 -1 -170 -20 -170 -19 0 -20 7 -20 170 0 163 1 170 20 170 19 0 20 -7 20 -170z m536 137 c22 -26 24 -36 24 -141 0 -163 -10 -170 -228 -164 -111 3 -124 5 -144 26 -21 21 -23 31 -23 141 0 169 3 172 208 168 138 -2 139 -2 163 -30z m554 -137 c0 -130 -3 -170 -12 -169 -7 0 -49 9 -93 19 l-80 19 73 -6 72 -6 0 157 c0 149 1 156 20 156 19 0 20 -7 20 -170z m-1066 -523 c-7 -20 -25 -22 -42 -5 -9 9 -8 16 5 30 14 16 19 16 30 5 8 -7 11 -21 7 -30z m144 -4 c-14 -14 -20 -14 -33 -3 -14 12 -14 15 2 32 15 17 18 17 32 3 14 -13 14 -17 -1 -32z m158 26 c3 -6 -1 -18 -9 -27 -13 -13 -19 -13 -32 -2 -12 10 -13 16 -4 26 14 17 35 18 45 3z m150 0 c3 -6 -1 -18 -9 -27 -13 -12 -19 -13 -31 -3 -8 7 -12 19 -9 27 6 17 39 19 49 3z m-458 -176 c-14 -14 -20 -14 -33 -3 -14 12 -14 15 2 32 15 17 18 17 32 3 14 -13 14 -17 -1 -32z m149 0 c-15 -16 -18 -16 -33 -2 -14 15 -14 18 2 33 15 16 18 16 33 2 14 -15 14 -18 -2 -33z m150 0 c-15 -16 -18 -16 -33 -2 -14 15 -14 18 2 33 15 16 18 16 33 2 14 -15 14 -18 -2 -33z m153 31 c11 -12 10 -18 -3 -32 -16 -15 -18 -15 -34 0 -13 14 -14 20 -3 32 7 9 16 16 20 16 4 0 13 -7 20 -16z m-452 -180 c-19 -19 -38 -11 -38 16 0 24 21 31 40 14 12 -12 12 -16 -2 -30z m149 -1 c-15 -16 -18 -16 -33 -2 -14 15 -14 18 2 33 15 16 18 16 33 2 14 -15 14 -18 -2 -33z m153 31 c11 -12 10 -18 -3 -31 -22 -23 -52 0 -36 28 12 23 22 24 39 3z m150 0 c11 -12 10 -18 -3 -32 -16 -15 -18 -15 -34 0 -13 14 -14 20 -3 32 7 9 16 16 20 16 4 0 13 -7 20 -16z m-449 -178 c-16 -19 -41 -10 -41 14 0 24 21 31 39 14 11 -10 12 -16 2 -28z m149 28 c11 -12 10 -18 -3 -31 -22 -23 -52 0 -36 28 12 23 22 24 39 3z m150 0 c11 -12 10 -18 -3 -32 -16 -15 -18 -15 -34 0 -13 14 -14 20 -3 32 7 9 16 16 20 16 4 0 13 -7 20 -16z m150 0 c11 -12 10 -18 -3 -32 -16 -15 -18 -15 -34 0 -13 14 -14 20 -3 32 7 9 16 16 20 16 4 0 13 -7 20 -16z m-901 -180 c-14 -14 -17 -14 -29 0 -10 13 -10 19 0 32 12 14 15 14 29 0 14 -15 14 -17 0 -32z m151 1 c-10 -12 -16 -13 -26 -4 -8 6 -14 17 -14 24 0 19 23 25 39 9 12 -11 12 -16 1 -29z m150 30 c10 -12 10 -18 0 -31 -12 -13 -15 -13 -28 0 -15 15 -10 46 6 46 5 0 15 -7 22 -15z m150 0 c10 -12 10 -18 0 -29 -14 -18 -40 -10 -40 13 0 32 20 40 40 16z m150 0 c10 -12 10 -18 0 -29 -14 -18 -40 -10 -40 13 0 32 20 40 40 16z m150 -1 c11 -12 10 -18 -3 -32 -16 -15 -18 -15 -34 0 -13 14 -14 20 -3 32 7 9 16 16 20 16 4 0 13 -7 20 -16z m150 0 c11 -12 10 -18 -3 -32 -16 -15 -18 -15 -34 0 -13 14 -14 20 -3 32 7 9 16 16 20 16 4 0 13 -7 20 -16z m-890 -158 c0 -22 -22 -37 -37 -25 -16 14 -17 36 0 42 17 6 37 -3 37 -17z m140 9 c10 -12 10 -18 0 -31 -12 -13 -15 -13 -28 0 -15 15 -10 46 6 46 5 0 15 -7 22 -15z m150 0 c10 -12 10 -18 0 -31 -12 -13 -15 -13 -28 0 -15 15 -10 46 6 46 5 0 15 -7 22 -15z m150 0 c10 -12 10 -18 0 -31 -12 -13 -15 -13 -28 0 -15 15 -10 46 6 46 5 0 15 -7 22 -15z m150 -1 c11 -12 11 -18 -2 -30 -14 -14 -17 -14 -32 1 -13 13 -14 20 -5 31 15 18 24 18 39 -2z m150 0 c11 -12 11 -18 -2 -30 -14 -14 -17 -14 -32 1 -13 13 -14 20 -5 31 15 18 24 18 39 -2z m150 0 c11 -12 11 -18 -1 -30 -13 -12 -18 -12 -34 0 -16 12 -17 16 -6 30 17 20 25 20 41 0z m-744 -149 c4 -8 0 -22 -7 -31 -11 -13 -14 -13 -27 0 -17 17 -9 46 13 46 9 0 18 -7 21 -15z m144 0 c10 -12 10 -18 0 -31 -12 -13 -15 -13 -28 0 -15 15 -10 46 6 46 5 0 15 -7 22 -15z m150 0 c10 -12 10 -18 0 -31 -12 -13 -15 -13 -28 0 -15 15 -10 46 6 46 5 0 15 -7 22 -15z m150 0 c10 -12 10 -18 0 -30 -12 -14 -15 -14 -31 1 -14 13 -16 20 -8 31 15 17 24 17 39 -2z m150 -1 c11 -12 11 -18 -2 -30 -14 -14 -17 -14 -32 1 -13 13 -14 20 -5 31 15 18 24 18 39 -2z m150 0 c11 -12 11 -18 -1 -30 -13 -12 -18 -12 -34 0 -16 12 -17 16 -6 30 17 20 25 20 41 0z m-594 -149 c4 -8 0 -22 -7 -31 -11 -13 -14 -13 -27 0 -17 17 -9 46 13 46 9 0 18 -7 21 -15z m144 0 c10 -12 10 -18 0 -30 -12 -14 -15 -14 -31 1 -14 13 -16 20 -8 31 15 17 24 17 39 -2z m150 0 c10 -12 10 -18 0 -30 -12 -14 -15 -14 -31 1 -14 13 -16 20 -8 31 15 17 24 17 39 -2z m150 0 c10 -12 10 -18 0 -30 -12 -14 -15 -14 -31 1 -14 13 -16 20 -8 31 15 17 24 17 39 -2z m150 -1 c11 -12 11 -18 -2 -30 -14 -14 -17 -14 -32 1 -13 13 -14 20 -5 31 15 18 24 18 39 -2z m-444 -149 c4 -8 1 -22 -6 -30 -11 -14 -15 -14 -31 1 -14 13 -16 20 -8 31 15 17 38 17 45 -2z m144 0 c10 -12 10 -18 0 -30 -12 -14 -15 -14 -31 1 -14 13 -16 20 -8 31 15 17 24 17 39 -2z m150 0 c13 -16 6 -35 -14 -35 -22 0 -37 25 -24 38 16 16 23 15 38 -3z m150 0 c13 -16 6 -35 -14 -35 -22 0 -37 25 -24 38 16 16 23 15 38 -3z"></path><path id="pgX6yPDR5" d="M1145 3011 c-3 -6 -3 -46 1 -89 l7 -79 86 -6 c47 -3 115 -3 151 1 l65 7 0 85 0 85 -152 3 c-91 1 -154 -1 -158 -7z"></path><path id="pppAvweIf" d="M1713 3120 c-20 -8 -23 -17 -23 -68 0 -32 5 -63 12 -70 13 -13 262 -18 292 -6 12 5 16 21 16 70 0 60 -2 65 -26 74 -32 12 -241 12 -271 0z"></path><path id="pltLv1imE" d="M2240 2982 l0 -139 93 -6 c50 -3 121 -3 157 1 l65 7 0 135 0 135 -157 3 -158 3 0 -139z"></path><path id="p1CBHn1Ulq" d="M3017 3113 c-11 -20 -18 -131 -12 -198 l7 -73 82 -6 c44 -4 113 -3 151 1 l70 8 0 135 0 135 -147 3 c-80 1 -149 -1 -151 -5z"></path></g></g><g id="l2vjncJQQsIjoNWzOZGhcFB" fill="rgb(255,255,255)" style="transform: none;"><g style="transform: none;"><path id="ptLzTKRlK" d="M2280 4349 c-281 -32 -590 -149 -827 -311 -408 -280 -673 -683 -780 -1187 -25 -115 -27 -145 -27 -351 0 -207 2 -235 27 -353 38 -176 79 -301 148 -447 258 -541 740 -909 1350 -1032 98 -19 144 -23 329 -22 195 0 228 3 349 28 514 106 920 377 1205 806 216 324 318 693 303 1095 -35 918 -735 1670 -1652 1775 -105 12 -317 11 -425 -1z m461 -173 c14 -6 15 -12 6 -35 -14 -37 -2 -78 26 -87 54 -19 101 12 95 63 -3 22 0 33 9 33 8 0 13 -13 13 -33 0 -47 20 -70 59 -69 36 1 59 16 71 47 7 19 9 18 19 -8 13 -34 46 -47 86 -35 22 6 40 4 67 -8 37 -17 37 -17 16 -34 -26 -20 -29 -74 -5 -97 36 -37 117 -4 117 48 0 12 5 16 15 13 8 -4 15 -12 15 -19 0 -20 35 -45 61 -43 61 5 338 -250 461 -423 211 -297 318 -628 318 -989 0 -347 -92 -649 -285 -940 -246 -371 -637 -631 -1087 -722 -96 -19 -144 -23 -318 -23 -174 0 -222 4 -318 23 -717 145 -1256 711 -1357 1425 -69 481 79 979 400 1349 257 297 642 509 1025 564 97 14 459 14 491 0z"></path><path id="p15a5rXqrz" d="M2621 4146 c-17 -20 -10 -67 11 -79 28 -18 68 7 68 42 0 44 -53 68 -79 37z"></path><path id="pVejx4RUz" d="M2760 4010 c-34 -34 -19 -107 23 -111 78 -8 118 65 61 110 -33 26 -58 27 -84 1z"></path><path id="pXpZhgr3S" d="M2910 4010 c-24 -24 -26 -72 -4 -94 38 -39 114 -8 114 46 0 25 -44 68 -70 68 -11 0 -29 -9 -40 -20z"></path><path id="pP34Lyd7B" d="M3062 4013 c-36 -31 -33 -87 6 -106 35 -17 68 -11 87 16 21 31 19 54 -10 82 -28 29 -55 32 -83 8z"></path><path id="p1G0V5yVeg" d="M2622 3998 c-20 -20 -14 -66 9 -79 34 -18 69 3 69 40 0 43 -50 67 -78 39z"></path><path id="psN4vpa1E" d="M2760 3860 c-43 -43 -14 -110 47 -110 61 0 85 71 37 109 -33 26 -58 27 -84 1z"></path><path id="p1BArjxj0C" d="M2912 3864 c-28 -19 -30 -74 -4 -97 27 -25 78 -22 96 5 22 32 20 55 -9 83 -28 29 -51 31 -83 9z"></path><path id="p1ATIzVCQ4" d="M3062 3863 c-50 -43 -22 -113 43 -113 61 0 84 61 40 105 -28 29 -55 32 -83 8z"></path><path id="pJNoEhwxx" d="M3209 3862 c-15 -13 -22 -30 -22 -52 0 -40 23 -60 70 -60 61 0 82 79 30 115 -28 20 -50 19 -78 -3z"></path><path id="pLw5DMFDr" d="M2622 3848 c-6 -6 -12 -25 -12 -40 0 -31 28 -49 62 -40 22 5 35 49 21 71 -13 20 -54 26 -71 9z"></path><path id="pmCwPYPtf" d="M3366 3841 c-37 -41 14 -97 60 -66 28 18 31 46 8 69 -21 21 -47 20 -68 -3z"></path><path id="p168o262BH" d="M2762 3714 c-15 -10 -22 -25 -22 -48 0 -40 26 -66 67 -66 59 0 84 67 40 108 -27 26 -54 28 -85 6z"></path><path id="phhy5dFrS" d="M2912 3714 c-28 -19 -30 -74 -4 -97 64 -58 151 33 89 91 -27 26 -54 28 -85 6z"></path><path id="p14FysBDZ0" d="M3062 3713 c-50 -43 -22 -113 43 -113 61 0 84 61 40 105 -28 29 -55 32 -83 8z"></path><path id="pLRZLqSA9" d="M3210 3712 c-28 -23 -30 -80 -4 -99 29 -21 81 -16 98 9 22 32 20 55 -9 83 -29 30 -55 32 -85 7z"></path><path id="pIOHPDzjl" d="M2621 3696 c-7 -8 -11 -27 -9 -43 6 -51 88 -41 88 11 0 42 -53 63 -79 32z"></path><path id="phRQXrx7t" d="M3366 3694 c-9 -8 -16 -22 -16 -30 0 -15 35 -54 48 -54 18 0 52 33 52 50 0 24 -26 50 -50 50 -10 0 -26 -7 -34 -16z"></path><path id="peEbK3D2N" d="M2762 3564 c-15 -10 -22 -25 -22 -48 0 -40 26 -66 67 -66 59 0 84 67 40 108 -27 26 -54 28 -85 6z"></path><path id="ptTnkkd01" d="M2912 3564 c-28 -19 -30 -74 -4 -97 64 -58 151 33 89 91 -27 26 -54 28 -85 6z"></path><path id="psuPwb2aO" d="M3055 3560 c-39 -43 -9 -110 51 -110 23 0 38 7 48 22 21 30 20 50 -5 82 -25 32 -68 35 -94 6z"></path><path id="pGEX2A92B" d="M3205 3560 c-57 -63 35 -150 95 -90 26 26 25 51 -1 84 -25 32 -68 35 -94 6z"></path><path id="phL3P2UBb" d="M2621 3546 c-7 -8 -11 -27 -9 -43 6 -51 88 -41 88 11 0 42 -53 63 -79 32z"></path><path id="p1BADvKD4z" d="M3366 3544 c-19 -18 -20 -28 -6 -55 12 -22 59 -26 78 -7 26 26 1 78 -38 78 -10 0 -26 -7 -34 -16z"></path><path id="pB5fmVWmO" d="M2757 3412 c-22 -25 -21 -75 1 -95 43 -39 112 -8 112 50 0 53 -78 84 -113 45z"></path><path id="pSL78v9Md" d="M2907 3412 c-22 -25 -21 -75 1 -95 40 -36 112 -6 112 46 0 53 -79 87 -113 49z"></path><path id="pA2h8u69q" d="M3055 3410 c-57 -63 35 -150 95 -90 26 26 25 51 -1 84 -25 32 -68 35 -94 6z"></path><path id="pfdB0ighG" d="M3205 3410 c-57 -63 35 -150 95 -90 26 26 25 51 -1 84 -25 32 -68 35 -94 6z"></path><path id="pHQLLGYYE" d="M2621 3396 c-7 -8 -11 -27 -9 -43 6 -51 88 -41 88 11 0 42 -53 63 -79 32z"></path><path id="pi9HFGzB4" d="M3359 3389 c-8 -16 -8 -28 0 -46 9 -19 17 -24 43 -21 40 4 56 28 40 62 -15 34 -66 37 -83 5z"></path><path id="pGoehNVvc" d="M1080 2986 l0 -195 43 -6 c24 -4 117 -5 206 -3 203 4 201 2 201 145 0 87 -2 96 -25 119 l-26 26 31 54 30 54 -57 0 -58 0 -28 -49 -27 -50 -95 -3 -95 -3 0 53 0 52 -50 0 -50 0 0 -194z m345 -56 l0 -55 -60 -5 c-33 -3 -88 -4 -122 -2 l-61 4 -4 55 c-1 30 -1 57 1 59 3 3 59 3 125 2 l121 -3 0 -55z"></path><path id="pp9og1WQd" d="M1675 3171 c-40 -17 -50 -40 -50 -122 0 -68 3 -82 23 -101 21 -22 32 -23 175 -26 141 -2 152 -3 155 -21 6 -37 -30 -44 -190 -37 l-147 6 -7 -35 c-3 -20 -3 -39 1 -43 4 -4 94 -7 202 -7 l195 0 25 29 c24 28 24 32 21 172 -4 197 5 188 -216 191 -92 1 -176 -1 -187 -6z m279 -81 c21 -8 26 -16 26 -44 0 -22 -6 -36 -16 -40 -30 -11 -219 -7 -232 6 -21 21 -15 68 11 78 30 12 180 12 211 0z"></path><path id="p1A4sE59vJ" d="M2208 3173 l-38 -4 0 -189 0 -188 63 -7 c35 -4 130 -5 211 -3 193 4 186 -4 186 193 0 79 -3 151 -6 160 -14 37 -56 45 -221 43 -87 -1 -175 -3 -195 -5z m317 -193 l0 -105 -59 -5 c-32 -3 -90 -4 -128 -2 l-68 4 0 109 0 110 128 -3 127 -3 0 -105z"></path><path id="pczBtNT9x" d="M2730 2980 l0 -200 50 0 50 0 0 200 0 200 -50 0 -50 0 0 -200z"></path><path id="p1FSDQ13LF" d="M2985 3171 c-46 -19 -50 -36 -50 -192 0 -200 -8 -193 197 -197 260 -6 258 -7 258 194 0 137 -1 144 -24 171 l-24 28 -169 2 c-92 1 -177 -1 -188 -6z m303 -185 c1 -55 -1 -103 -7 -109 -10 -10 -228 -13 -238 -4 -9 9 -8 191 1 205 5 9 40 12 124 10 l117 -3 3 -99z"></path><path id="pxtp7mDJa" d="M3820 3025 c0 -85 -3 -155 -7 -155 -10 1 -92 19 -115 26 -15 5 -18 -1 -18 -38 l0 -43 120 -26 120 -25 0 208 0 208 -50 0 -50 0 0 -155z"></path><path id="pjx5kvOyD" d="M1740 2706 c0 -15 7 -27 18 -30 28 -9 201 -46 212 -46 7 0 10 16 8 37 l-3 38 -100 12 c-139 17 -135 17 -135 -11z"></path><path id="p1CePd5QrY" d="M3046 2721 c-9 -14 4 -40 22 -45 28 -9 201 -46 212 -46 7 0 10 16 8 37 l-3 38 -100 12 c-125 15 -133 15 -139 4z"></path><path id="p2T8hHSif" d="M2757 2512 c-25 -27 -22 -78 5 -96 31 -22 64 -20 88 6 24 26 26 56 4 86 -19 28 -74 30 -97 4z"></path><path id="p1AkGvzHlE" d="M2907 2512 c-58 -64 33 -151 91 -89 26 27 28 54 6 85 -19 28 -74 30 -97 4z"></path><path id="pGEmkKUno" d="M3055 2510 c-24 -27 -22 -70 5 -92 31 -25 62 -23 89 6 18 19 22 31 16 55 -11 51 -75 69 -110 31z"></path><path id="pfXCDu7Ba" d="M3206 2514 c-40 -40 -8 -114 49 -114 33 0 68 47 60 80 -3 14 -13 31 -22 38 -23 17 -68 15 -87 -4z"></path><path id="pTKKIPGNv" d="M2633 2509 c-26 -9 -32 -56 -11 -77 16 -16 53 -15 68 2 29 36 -13 92 -57 75z"></path><path id="pn0HV4n62" d="M3370 2502 c-43 -35 -4 -94 50 -77 32 10 38 55 10 77 -12 10 -26 18 -30 18 -4 0 -18 -8 -30 -18z"></path><path id="pmg2sYb9" d="M2790 2382 c-52 -16 -69 -88 -28 -116 12 -9 30 -16 39 -16 26 0 69 39 69 64 0 43 -42 80 -80 68z"></path><path id="pNXx9SVSQ" d="M2930 2378 c-31 -11 -40 -25 -40 -65 0 -22 7 -37 22 -47 30 -21 50 -20 82 5 29 23 33 54 11 86 -18 26 -43 33 -75 21z"></path><path id="pEBFRw7nK" d="M3080 2378 c-31 -12 -40 -25 -40 -65 0 -68 85 -82 120 -20 13 24 13 30 0 53 -18 33 -47 44 -80 32z"></path><path id="p9QOmwkof" d="M3230 2380 c-55 -13 -59 -97 -5 -122 54 -25 110 33 84 87 -16 32 -43 44 -79 35z"></path><path id="pVu28Xve4" d="M2628 2359 c-21 -12 -24 -59 -6 -77 7 -7 21 -12 33 -12 43 0 61 53 29 84 -18 18 -32 20 -56 5z"></path><path id="pYIYJ2WGN" d="M3372 2354 c-12 -8 -22 -23 -22 -33 0 -21 30 -51 52 -51 19 0 48 32 48 53 0 14 -35 47 -50 47 -3 0 -16 -7 -28 -16z"></path><path id="pV3IMh5sV" d="M2772 2228 c-46 -23 -39 -105 11 -122 58 -21 115 66 70 106 -26 22 -55 28 -81 16z"></path><path id="pyx3FxDYX" d="M2925 2228 c-28 -16 -35 -28 -35 -65 0 -59 63 -79 113 -35 49 43 -20 132 -78 100z"></path><path id="pBjdh2hN3" d="M3080 2233 c-25 -9 -40 -35 -40 -69 0 -38 21 -57 62 -57 34 0 68 32 68 63 0 38 -54 76 -90 63z"></path><path id="pt8nUKF6O" d="M3222 2230 c-45 -19 -48 -95 -5 -118 27 -15 72 -3 89 23 35 54 -22 119 -84 95z"></path><path id="pjohXb0xX" d="M2626 2207 c-22 -16 -18 -65 6 -80 28 -18 68 7 68 42 0 44 -39 63 -74 38z"></path><path id="p3hwxsUnf" d="M3367 2202 c-22 -24 -21 -45 1 -65 24 -22 45 -21 65 1 22 24 21 45 -1 65 -24 22 -45 21 -65 -1z"></path><path id="p16K2VgJMj" d="M2772 2078 c-42 -21 -42 -100 1 -114 77 -27 133 56 71 105 -30 23 -39 24 -72 9z"></path><path id="pnbqsGeAI" d="M2930 2083 c-39 -14 -55 -88 -25 -113 24 -20 77 -14 97 11 25 29 22 55 -7 84 -24 25 -36 28 -65 18z"></path><path id="pms6BJAkd" d="M3070 2077 c-19 -10 -26 -21 -28 -53 -4 -48 14 -67 61 -66 35 1 67 31 67 64 0 21 -42 68 -62 68 -7 0 -24 -6 -38 -13z"></path><path id="ppQrfaIi" d="M3222 2080 c-47 -20 -48 -101 -1 -119 77 -28 132 68 66 114 -24 17 -33 18 -65 5z"></path><path id="pgseb8kHh" d="M2178 2059 c-26 -15 -23 -65 3 -80 33 -17 69 3 69 39 0 46 -32 65 -72 41z"></path><path id="p1Ekuz7eUj" d="M2322 2058 c-20 -20 -14 -66 9 -79 34 -18 69 3 69 40 0 43 -50 67 -78 39z"></path><path id="pwDau0NH4" d="M2472 2058 c-20 -20 -14 -66 9 -79 34 -18 69 3 69 40 0 43 -50 67 -78 39z"></path><path id="pc68ALNmi" d="M2621 2056 c-17 -20 -10 -67 11 -79 28 -18 68 7 68 42 0 44 -53 68 -79 37z"></path><path id="pNiFDYnmp" d="M3367 2052 c-22 -24 -21 -45 1 -65 24 -22 45 -21 65 1 22 24 21 45 -1 65 -24 22 -45 21 -65 -1z"></path><path id="p1HCvuMWHi" d="M2316 1919 c-50 -39 -24 -109 41 -109 61 0 85 71 37 109 -15 12 -32 21 -39 21 -7 0 -24 -9 -39 -21z"></path><path id="pXYwdKwhM" d="M2475 1928 c-27 -15 -35 -28 -35 -59 0 -34 29 -59 67 -59 61 0 85 71 37 109 -30 24 -41 25 -69 9z"></path><path id="pPH7KCyLY" d="M2630 1933 c-24 -8 -40 -35 -40 -64 0 -35 41 -69 73 -62 60 15 77 76 31 112 -27 21 -37 24 -64 14z"></path><path id="pFbTKebJW" d="M2773 1930 c-43 -17 -43 -102 0 -116 77 -27 133 56 71 105 -29 23 -38 24 -71 11z"></path><path id="pFcIZLdpf" d="M2923 1930 c-43 -17 -43 -102 0 -116 33 -11 60 -5 80 18 24 28 21 55 -8 83 -26 27 -37 29 -72 15z"></path><path id="pL0Wnr4gr" d="M3060 1922 c-27 -22 -30 -76 -6 -100 22 -22 77 -17 98 9 25 29 22 55 -7 84 -29 30 -55 32 -85 7z"></path><path id="pZsggbhQg" d="M3209 1922 c-27 -22 -30 -75 -6 -99 9 -9 31 -16 49 -15 64 2 87 72 36 115 -26 22 -50 22 -79 -1z"></path><path id="pwlG6Nrcz" d="M2172 1908 c-7 -7 -12 -24 -12 -38 0 -53 82 -60 88 -6 2 15 -2 34 -9 42 -14 17 -51 18 -67 2z"></path><path id="pQr2TlcFt" d="M3367 1902 c-22 -24 -21 -45 1 -65 24 -22 45 -21 65 1 22 24 21 45 -1 65 -24 22 -45 21 -65 -1z"></path><path id="pUeF6Ps8m" d="M2325 1778 c-27 -15 -35 -28 -35 -59 0 -34 29 -59 67 -59 58 0 85 69 41 110 -24 22 -44 25 -73 8z"></path><path id="p1AhSitF1X" d="M2460 1770 c-43 -43 -14 -110 47 -110 61 0 85 71 37 109 -33 26 -58 27 -84 1z"></path><path id="p24CTjGAA" d="M2610 1770 c-43 -43 -14 -110 47 -110 61 0 85 71 37 109 -33 26 -58 27 -84 1z"></path><path id="p11SN7hgUS" d="M2760 1770 c-43 -43 -14 -110 47 -110 61 0 85 71 37 109 -33 26 -58 27 -84 1z"></path><path id="ph7NWfSL" d="M2912 1774 c-26 -18 -30 -74 -6 -98 24 -24 80 -20 98 6 22 32 20 55 -9 83 -28 29 -51 31 -83 9z"></path><path id="pWCcQ2M5B" d="M3067 1779 c-26 -15 -36 -49 -25 -81 16 -45 78 -54 111 -16 24 28 21 55 -8 83 -26 27 -49 31 -78 14z"></path><path id="pxsvIEDjN" d="M3217 1779 c-43 -25 -42 -91 2 -112 35 -17 68 -10 87 18 37 57 -30 128 -89 94z"></path><path id="pwejedYwE" d="M2172 1758 c-15 -15 -16 -50 0 -66 7 -7 25 -12 40 -12 53 0 50 81 -3 88 -13 2 -30 -3 -37 -10z"></path><path id="pMfQ8Nle0" d="M3365 1750 c-15 -17 -16 -24 -7 -45 16 -34 37 -41 67 -21 29 19 32 47 9 70 -21 22 -47 20 -69 -4z"></path><path id="p1LsBKtHF" d="M2460 1620 c-25 -25 -26 -72 -2 -93 25 -22 75 -21 95 1 37 41 6 112 -48 112 -14 0 -34 -9 -45 -20z"></path><path id="p1EJ6qa9sB" d="M2610 1620 c-43 -43 -14 -110 47 -110 59 0 84 67 40 108 -29 27 -61 28 -87 2z"></path><path id="pZtO2XAjF" d="M2760 1620 c-43 -43 -14 -110 47 -110 59 0 84 67 40 108 -29 27 -61 28 -87 2z"></path><path id="pFAcpga7S" d="M2912 1624 c-28 -19 -30 -74 -4 -97 27 -25 78 -22 96 5 21 30 20 50 -5 82 -23 29 -54 33 -87 10z"></path><path id="pxbuAlgne" d="M3062 1623 c-50 -43 -22 -113 43 -113 61 0 84 61 40 105 -28 29 -55 32 -83 8z"></path><path id="p18HE7oHph" d="M3209 1622 c-15 -13 -22 -30 -22 -52 0 -40 23 -60 70 -60 61 0 82 79 30 115 -28 20 -50 19 -78 -3z"></path><path id="pRM1ArlHi" d="M2322 1608 c-20 -20 -14 -66 9 -79 33 -17 69 3 69 39 0 33 -16 52 -45 52 -12 0 -26 -5 -33 -12z"></path><path id="paRSa37hq" d="M3366 1604 c-9 -8 -16 -22 -16 -30 0 -15 35 -54 48 -54 18 0 52 33 52 50 0 24 -26 50 -50 50 -10 0 -26 -7 -34 -16z"></path><path id="piWVo4rAl" d="M2610 1470 c-25 -25 -26 -72 -2 -93 25 -22 75 -21 95 1 37 41 6 112 -48 112 -14 0 -34 -9 -45 -20z"></path><path id="p1Dphu5Dwq" d="M2762 1474 c-15 -10 -22 -25 -22 -48 0 -40 26 -66 67 -66 59 0 84 67 40 108 -27 26 -54 28 -85 6z"></path><path id="pCiLZaUjO" d="M2912 1474 c-28 -19 -30 -74 -4 -97 64 -58 151 33 89 91 -27 26 -54 28 -85 6z"></path><path id="pgYICD86H" d="M3055 1470 c-39 -43 -9 -110 51 -110 23 0 38 7 48 22 21 30 20 50 -5 82 -25 32 -68 35 -94 6z"></path><path id="p18B0cZupQ" d="M3207 1473 c-16 -18 -20 -35 -18 -65 3 -48 87 -67 115 -26 21 30 20 50 -5 82 -24 31 -68 35 -92 9z"></path><path id="paRjcYc8C" d="M2476 1454 c-19 -18 -21 -55 -4 -72 19 -19 55 -14 72 9 16 23 12 47 -12 67 -21 16 -37 15 -56 -4z"></path><path id="p15ScDKcPY" d="M3366 1454 c-19 -18 -20 -28 -6 -55 12 -22 59 -26 78 -7 26 26 1 78 -38 78 -10 0 -26 -7 -34 -16z"></path><path id="pdlVaFGtf" d="M2757 1322 c-22 -25 -21 -75 1 -95 43 -39 112 -8 112 50 0 53 -78 84 -113 45z"></path><path id="ppS0Ebnwe" d="M2907 1322 c-22 -25 -21 -75 1 -95 64 -58 151 33 89 91 -28 27 -68 28 -90 4z"></path><path id="pDtLVUVTZ" d="M3055 1320 c-57 -63 35 -150 95 -90 26 26 25 51 -1 84 -25 32 -68 35 -94 6z"></path><path id="pdj8v1TqR" d="M3205 1320 c-57 -63 35 -150 95 -90 26 26 25 51 -1 84 -25 32 -68 35 -94 6z"></path><path id="p3Cfju2VB" d="M3359 1299 c-8 -16 -8 -28 0 -46 9 -19 17 -24 43 -21 40 4 56 28 40 62 -15 34 -66 37 -83 5z"></path><path id="pJNG3io2r" d="M2622 1298 c-16 -16 -15 -53 2 -68 36 -29 92 13 75 58 -9 25 -56 31 -77 10z"></path><path id="p1165y4qaZ" d="M2766 1149 c-20 -30 -6 -63 28 -67 33 -4 56 13 56 42 0 47 -57 63 -84 25z"></path><path id="pcTQ1JaNh" d="M2924 1162 c-35 -24 -18 -82 24 -82 33 0 52 16 52 45 0 37 -44 59 -76 37z"></path><path id="pe6U3RDkb" d="M3074 1162 c-35 -24 -18 -82 24 -82 33 0 52 16 52 45 0 37 -44 59 -76 37z"></path><path id="pLpIdyZXm" d="M3209 1149 c-17 -33 3 -69 39 -69 33 0 52 16 52 45 0 29 -19 45 -52 45 -18 0 -31 -7 -39 -21z"></path></g></g></svg>